<svg viewBox="0 0 450 57.9829" xmlns="http://www.w3.org/2000/svg" xmlns:xlink="http://www.w3.org/1999/xlink" width="450.000000" height="57.982910" fill="none" customFrame="#000000">
	<g id="text9">
		<path id="path3740" d="M29.3282 1.1167L29.3282 8.77333L8.84225 8.77333L8.84225 56.9461L0 56.9461L0 1.1167L29.3282 1.1167Z" fill="rgb(3,115,148)" fill-rule="nonzero" />
		<path id="path3742" d="M67.663 53.0381C64.3362 56.3347 59.7546 57.983 53.9182 57.983C48.0817 57.983 43.5 56.3347 40.1733 53.0381C36.8465 49.6883 35.1831 45.089 35.1831 39.2402L35.1831 18.8226C35.1831 12.9738 36.8465 8.40109 40.1733 5.10448C43.5 1.75472 48.0817 0.079834 53.9182 0.079834C59.7546 0.079834 64.3362 1.75472 67.663 5.10448C70.9898 8.40109 72.6532 12.9738 72.6532 18.8226L72.6532 39.2402C72.6532 45.089 70.9898 49.6883 67.663 53.0381ZM53.9182 50.0871C57.0698 50.0871 59.4628 49.1566 61.097 47.2956C62.7312 45.4346 63.5483 42.7495 63.5483 39.2402L63.5483 18.8226C63.5483 15.3133 62.7312 12.6282 61.097 10.7672C59.4628 8.90625 57.0698 7.97576 53.9182 7.97576C47.498 7.97576 44.288 11.5914 44.288 18.8226L44.288 39.2402C44.288 46.4715 47.498 50.0871 53.9182 50.0871Z" fill="rgb(3,115,148)" fill-rule="nonzero" />
		<path id="path3744" d="M99.2975 1.1167C105.309 1.1167 109.949 2.71183 113.218 5.90208C116.486 9.03916 118.12 13.4523 118.12 19.1416C118.12 24.9904 116.486 29.4834 113.218 32.6205C109.949 35.7575 105.309 37.3261 99.2975 37.3261L91.9436 37.3261L91.9436 56.9461L83.1013 56.9461L83.1013 1.1167L99.2975 1.1167ZM99.21 29.6695C105.805 29.6695 109.103 26.1602 109.103 19.1416C109.103 12.2294 105.805 8.77333 99.21 8.77333L91.9436 8.77333L91.9436 29.6695L99.21 29.6695Z" fill="rgb(3,115,148)" fill-rule="nonzero" />
		<path id="path3746" d="M125.678 56.9462L125.678 1.11673L134.345 1.11673L134.345 25.5222C134.345 31.1583 134.024 36.5285 133.382 41.6329L133.645 41.7924C135.688 36.9007 137.147 33.6041 138.022 31.9027L152.905 1.1167L161.922 1.1167L161.922 56.9461L153.255 56.9461L153.255 32.6205C153.255 27.2502 153.518 21.8002 154.043 16.2704L153.781 16.1109C152.03 20.5241 150.57 23.9536 149.403 26.3995L134.608 56.9461L125.678 56.9462Z" fill="rgb(3,115,148)" fill-rule="nonzero" />
		<path id="path3748" d="M197.439 27.9945C204.501 29.8023 208.032 34.2952 208.032 41.4733C208.032 46.5245 206.252 50.5389 202.692 53.5165C199.19 56.4941 194.667 57.9829 189.122 57.9829C183.461 57.9829 178.908 56.3877 175.465 53.1975C172.079 49.9541 170.241 45.8865 169.949 40.9948L178.879 40.9948C179.054 43.6533 180.017 45.8599 181.768 47.6145C183.519 49.3692 185.941 50.2465 189.034 50.2465C192.011 50.2465 194.433 49.4489 196.301 47.8538C198.169 46.2055 199.102 43.9457 199.102 41.0745C199.102 38.0969 198.11 35.8106 196.126 34.2155C194.141 32.6203 191.486 31.8228 188.159 31.8228L183.519 31.8228L183.519 24.6447L187.371 24.6447C194.141 24.6447 197.527 21.7203 197.527 15.8715C197.527 13.3193 196.768 11.3254 195.25 9.88977C193.791 8.45415 191.719 7.73635 189.035 7.73635C183.256 7.73635 180.163 10.8734 179.755 17.1476L171 17.1476C171.292 11.8837 172.984 7.70977 176.078 4.62586C179.171 1.54195 183.49 0 189.035 0C194.346 0 198.577 1.43561 201.729 4.30684C204.881 7.12489 206.456 11.0064 206.456 15.9513C206.456 21.9596 203.451 25.974 197.439 27.9945L197.439 27.9945Z" fill="rgb(3,115,148)" fill-rule="nonzero" />
		<path id="path3750" d="M247.545 53.0381C244.218 56.3347 239.637 57.983 233.8 57.983C227.964 57.983 223.382 56.3347 220.055 53.0381C216.728 49.6883 215.065 45.089 215.065 39.2402L215.065 18.8226C215.065 12.9738 216.728 8.40109 220.055 5.10448C223.382 1.75472 227.964 0.079834 233.8 0.079834C239.637 0.079834 244.218 1.75472 247.545 5.10448C250.872 8.40109 252.535 12.9738 252.535 18.8226L252.535 39.2402C252.535 45.089 250.872 49.6883 247.545 53.0381ZM233.8 50.0871C236.952 50.0871 239.345 49.1566 240.979 47.2956C242.613 45.4346 243.43 42.7495 243.43 39.2402L243.43 18.8226C243.43 15.3133 242.613 12.6282 240.979 10.7672C239.345 8.90625 236.952 7.97576 233.8 7.97576C227.38 7.97576 224.17 11.5914 224.17 18.8226L224.17 39.2402C224.17 46.4715 227.38 50.0871 233.8 50.0871Z" fill="rgb(3,115,148)" fill-rule="nonzero" />
		<path id="path3752" d="M289.16 1.1167L298.002 1.1167L298.002 56.9461L289.16 56.9461L289.16 32.4609L271.825 32.4609L271.825 56.9461L262.983 56.9461L262.983 1.1167L271.825 1.1167L271.825 24.8841L289.16 24.8841L289.16 1.1167Z" fill="rgb(3,115,148)" fill-rule="nonzero" />
		<path id="path3754" d="M340.03 1.1167L340.03 8.77333L327.248 8.77333L327.248 56.9461L318.231 56.9461L318.231 8.77333L305.536 8.77333L305.536 1.1167L340.03 1.1167Z" fill="rgb(3,115,148)" fill-rule="nonzero" />
		<path id="path3756" d="M340.376 39.8781L340.376 33.019L361.825 33.019L361.825 39.8781L340.376 39.8781Z" fill="rgb(3,115,148)" fill-rule="nonzero" />
		<path id="path3758" d="M397.922 28.2339C400.549 29.2441 402.621 30.8658 404.138 33.099C405.656 35.3322 406.414 37.9641 406.414 40.9949C406.414 45.9398 404.809 49.8478 401.599 52.7191C398.389 55.5371 394.099 56.9461 388.73 56.9461L371.22 56.9461L371.22 1.1167L387.854 1.1167C392.815 1.1167 396.755 2.49915 399.673 5.26404C402.65 7.97574 404.138 11.6445 404.138 16.2704C404.138 21.8533 402.066 25.8411 397.922 28.2338L397.922 28.2339ZM386.804 8.69354L380.063 8.69354L380.063 24.7246L387.066 24.7246C392.436 24.7246 395.121 21.9863 395.121 16.5097C395.121 11.2989 392.348 8.69354 386.804 8.69354L386.804 8.69354ZM387.592 49.3693C394.129 49.3693 397.397 46.5778 397.397 40.9949C397.397 38.1768 396.492 36.0234 394.683 34.5346C392.874 33.0458 390.393 32.3014 387.242 32.3014L380.063 32.3014L380.063 49.3693L387.592 49.3693Z" fill="rgb(3,115,148)" fill-rule="nonzero" />
		<path id="path3760" d="M431.527 57.9032C426.041 57.9032 421.693 56.3878 418.483 53.3571C415.331 50.3263 413.755 46.0461 413.755 40.5163L413.755 17.5465C413.755 11.9635 415.331 7.65668 418.483 4.62593C421.635 1.5952 425.954 0.079834 431.44 0.079834C437.043 0.079834 441.42 1.56862 444.572 4.5462C447.724 7.4706 449.416 11.6977 449.65 17.2274L440.895 17.2274C440.37 10.9001 437.189 7.73644 431.352 7.73644C428.668 7.73644 426.566 8.56059 425.049 10.2089C423.532 11.8572 422.773 14.3031 422.773 17.5465L422.773 40.5163C422.773 43.7597 423.532 46.2056 425.049 47.8539C426.625 49.449 428.784 50.2466 431.527 50.2466C437.422 50.2466 440.662 47.1095 441.245 40.8353L450 40.8353C449.708 46.3119 447.957 50.539 444.747 53.5166C441.595 56.441 437.189 57.9032 431.527 57.9032L431.527 57.9032Z" fill="rgb(3,115,148)" fill-rule="nonzero" />
	</g>
</svg>
