<?xml version="1.0" encoding="utf-8"?>
<!-- Generator: Adobe Illustrator 16.0.3, SVG Export Plug-In . SVG Version: 6.00 Build 0)  -->
<!DOCTYPE svg PUBLIC "-//W3C//DTD SVG 1.1//EN" "http://www.w3.org/Graphics/SVG/1.1/DTD/svg11.dtd">
<svg version="1.1" id="Layer_1" xmlns="http://www.w3.org/2000/svg" xmlns:xlink="http://www.w3.org/1999/xlink" x="0px" y="0px"
	 width="150px" height="50px" viewBox="0 0 150 50" enable-background="new 0 0 150 50" xml:space="preserve">
<rect x="127.588" y="27.148" fill="#037394" width="4.309" height="1.512"/>
<polygon fill="#037394" points="65.077,18.639 65.077,20.329 60.96,20.329 60.96,30.956 59.181,30.956 59.181,18.639 "/>
<path fill="#037394" d="M70.02,29.44c0.635,0,1.116-0.206,1.443-0.617c0.326-0.409,0.494-1.004,0.494-1.777v-4.504
	c0-0.775-0.164-1.369-0.494-1.778c-0.332-0.412-0.808-0.617-1.443-0.617c-1.288,0-1.937,0.798-1.937,2.395v4.504
	C68.083,28.641,68.732,29.44,70.02,29.44 M72.784,30.094c-0.667,0.729-1.587,1.092-2.764,1.092c-1.176,0-2.096-0.363-2.763-1.092
	c-0.667-0.738-1.003-1.756-1.003-3.043v-4.505c0-1.289,0.336-2.301,1.003-3.025c0.667-0.737,1.587-1.105,2.763-1.105
	c1.177,0,2.097,0.369,2.764,1.105c0.667,0.729,1.003,1.736,1.003,3.025v4.505C73.787,28.338,73.451,29.355,72.784,30.094"/>
<path fill="#037394" d="M79.123,24.935c1.324,0,1.987-0.774,1.987-2.324c0-1.526-0.663-2.288-1.987-2.288h-1.461v4.612H79.123z
	 M79.142,18.639c1.209,0,2.143,0.35,2.797,1.055c0.657,0.691,0.983,1.667,0.983,2.922c0,1.289-0.326,2.284-0.983,2.973
	c-0.66,0.69-1.588,1.036-2.797,1.036h-1.479v4.327h-1.779V18.639H79.142z"/>
<path fill="#037394" d="M84.438,30.957V18.64h1.741v5.381c0,1.242-0.065,2.427-0.191,3.553l0.053,0.035
	c0.409-1.077,0.703-1.806,0.876-2.179l2.993-6.792h1.811v12.313h-1.741v-5.367c0-1.185,0.051-2.384,0.158-3.608l-0.051-0.037
	c-0.351,0.976-0.645,1.731-0.878,2.269l-2.974,6.739L84.438,30.957z"/>
<path fill="#037394" d="M98.862,24.567c1.419,0.396,2.129,1.391,2.129,2.974c0,1.114-0.359,1.996-1.074,2.655
	c-0.705,0.657-1.615,0.984-2.727,0.984c-1.139,0-2.053-0.35-2.744-1.055c-0.682-0.714-1.051-1.614-1.107-2.693h1.793
	c0.038,0.589,0.229,1.073,0.579,1.461c0.351,0.388,0.84,0.579,1.462,0.579c0.598,0,1.082-0.177,1.46-0.527
	c0.373-0.363,0.565-0.862,0.565-1.493c0-0.659-0.2-1.163-0.598-1.513c-0.396-0.351-0.933-0.528-1.601-0.528h-0.934v-1.583h0.773
	c1.359,0,2.041-0.644,2.041-1.938c0-0.563-0.154-1.002-0.458-1.32c-0.293-0.317-0.709-0.476-1.25-0.476
	c-1.162,0-1.783,0.691-1.867,2.077h-1.761c0.062-1.163,0.397-2.082,1.022-2.764c0.626-0.682,1.489-1.022,2.605-1.022
	c1.067,0,1.919,0.317,2.553,0.952c0.636,0.621,0.952,1.479,0.952,2.567C100.674,23.236,100.07,24.123,98.862,24.567"/>
<path fill="#037394" d="M106.171,29.44c0.636,0,1.116-0.206,1.443-0.617c0.327-0.409,0.495-1.004,0.495-1.777v-4.504
	c0-0.775-0.163-1.369-0.495-1.778c-0.327-0.412-0.808-0.617-1.443-0.617c-1.287,0-1.937,0.798-1.937,2.395v4.504
	C104.234,28.641,104.879,29.44,106.171,29.44 M108.93,30.094c-0.667,0.729-1.587,1.092-2.763,1.092
	c-1.177,0-2.095-0.363-2.763-1.092c-0.667-0.738-1.005-1.756-1.005-3.043v-4.505c0-1.289,0.338-2.301,1.005-3.025
	c0.668-0.737,1.586-1.105,2.763-1.105c1.176,0,2.096,0.369,2.763,1.105c0.668,0.729,1.004,1.736,1.004,3.025v4.505
	C109.934,28.338,109.603,29.355,108.93,30.094"/>
<polygon fill="#037394" points="117.295,18.639 119.072,18.639 119.072,30.952 117.295,30.952 117.295,25.551 113.813,25.551 
	113.813,30.952 112.034,30.952 112.034,18.639 113.813,18.639 113.813,23.88 117.295,23.88 "/>
<polygon fill="#037394" points="127.517,18.639 127.517,20.329 124.95,20.329 124.95,30.956 123.139,30.956 123.139,20.329 
	120.587,20.329 120.587,18.639 "/>
<path fill="#037394" d="M137.077,29.281c1.312,0,1.97-0.616,1.97-1.849c0-0.62-0.183-1.097-0.546-1.424
	c-0.364-0.326-0.864-0.494-1.494-0.494h-1.442v3.767H137.077z M136.919,20.31h-1.354v3.538h1.409c1.079,0,1.62-0.601,1.62-1.811
	C138.59,20.884,138.033,20.31,136.919,20.31 M139.154,24.623c0.528,0.224,0.942,0.579,1.251,1.074
	c0.308,0.493,0.457,1.073,0.457,1.74c0,1.092-0.321,1.95-0.965,2.586c-0.646,0.621-1.509,0.933-2.587,0.933h-3.52V18.639h3.342
	c1,0,1.787,0.303,2.377,0.916c0.596,0.597,0.896,1.409,0.896,2.427C140.401,23.213,139.984,24.091,139.154,24.623"/>
<path fill="#037394" d="M145.908,31.167c-1.102,0-1.976-0.336-2.623-1.002c-0.635-0.669-0.952-1.616-0.952-2.835v-5.069
	c0-1.232,0.317-2.18,0.952-2.852c0.635-0.672,1.504-1.004,2.604-1.004c1.126,0,2.008,0.326,2.639,0.985
	c0.635,0.645,0.976,1.579,1.021,2.796h-1.759c-0.108-1.396-0.746-2.095-1.919-2.095c-0.541,0-0.962,0.181-1.265,0.545
	c-0.305,0.364-0.459,0.901-0.459,1.62v5.069c0,0.714,0.154,1.256,0.459,1.619c0.317,0.351,0.751,0.528,1.302,0.528
	c1.186,0,1.834-0.691,1.951-2.077h1.761c-0.062,1.209-0.412,2.142-1.057,2.796C147.93,30.845,147.044,31.167,145.908,31.167"/>
<path fill="#037394" d="M45.906,0.538l-18.159,9.651L9.438,0.544v9.634L0.452,5.446V39.27l18.262,9.923l18.208-9.924v-0.006
	l8.985-4.895V0.538z M18.712,47.066L2.319,38.159V8.539l7.118,3.75v22.08l16.309,8.864L18.712,47.066z M44.04,33.259l-16.346,8.906
	l-16.388-8.906V3.638l16.445,8.663L44.04,3.645V33.259z"/>
</svg>
